<svg width="43" height="40" viewBox="0 0 43 40" fill="none" xmlns="http://www.w3.org/2000/svg">
  <path fill-rule="evenodd" clip-rule="evenodd" d="M21.5 0C9.62483 0 0 8.955 0 20C0 31.045 9.62483 40 21.5 40C33.3734 40 43 31.045 43 20C43 8.955 33.3734 0 21.5 0ZM21.7508 31.6967C14.8207 31.6967 9.20917 26.4633 9.20917 20C9.20917 13.5367 14.8207 8.30333 21.7508 8.30333C25.1371 8.30333 27.9679 9.465 30.1394 11.3517L26.6027 14.6483V14.6417C25.2858 13.4717 23.616 12.8717 21.7508 12.8717C17.6121 12.8717 14.2491 16.1317 14.2491 19.9933C14.2491 23.8517 17.6121 27.1217 21.7508 27.1217C25.5062 27.1217 28.0611 25.1183 28.5878 22.3683H21.7508V17.8067H33.549C33.7066 18.59 33.7908 19.4067 33.7908 20.2633C33.7908 26.9467 28.9945 31.6967 21.7508 31.6967V31.6967Z" fill="#704232"/>
  </svg>
