<svg width="25" height="30" viewBox="0 0 25 30" fill="none" xmlns="http://www.w3.org/2000/svg">
  <path d="M20.75 10H23.5C23.8647 10 24.2144 10.1449 24.4723 10.4027C24.7301 10.6606 24.875 11.0103 24.875 11.375V27.875C24.875 28.2397 24.7301 28.5894 24.4723 28.8473C24.2144 29.1051 23.8647 29.25 23.5 29.25H1.5C1.13533 29.25 0.785591 29.1051 0.527728 28.8473C0.269866 28.5894 0.125 28.2397 0.125 27.875V11.375C0.125 11.0103 0.269866 10.6606 0.527728 10.4027C0.785591 10.1449 1.13533 10 1.5 10H4.25V8.625C4.25 6.43696 5.11919 4.33854 6.66637 2.79137C8.21354 1.24419 10.312 0.375 12.5 0.375C14.688 0.375 16.7865 1.24419 18.3336 2.79137C19.8808 4.33854 20.75 6.43696 20.75 8.625V10ZM18 10V8.625C18 7.16631 17.4205 5.76736 16.3891 4.73591C15.3576 3.70446 13.9587 3.125 12.5 3.125C11.0413 3.125 9.64236 3.70446 8.61091 4.73591C7.57946 5.76736 7 7.16631 7 8.625V10H18ZM11.125 18.25V21H13.875V18.25H11.125ZM5.625 18.25V21H8.375V18.25H5.625ZM16.625 18.25V21H19.375V18.25H16.625Z" fill="#704232"/>
  </svg>
