<svg width="38" height="36" viewBox="0 0 38 36" fill="none" xmlns="http://www.w3.org/2000/svg">
  <path d="M19 0.5C8.85273 0.5 0.625 8.33594 0.625 18C0.625 27.6641 8.85273 35.5 19 35.5C29.1473 35.5 37.375 27.6641 37.375 18C37.375 8.33594 29.1473 0.5 19 0.5ZM27.8307 13.6914C27.843 13.875 27.843 14.0664 27.843 14.2539C27.843 19.9883 23.2574 26.5938 14.8779 26.5938C12.2939 26.5938 9.89863 25.8789 7.88066 24.6484C8.2498 24.6875 8.60254 24.7031 8.97988 24.7031C11.1127 24.7031 13.0732 24.0156 14.6359 22.8516C12.6344 22.8125 10.9527 21.5625 10.3785 19.8438C11.0799 19.9414 11.7115 19.9414 12.4334 19.7656C11.4028 19.5662 10.4764 19.0331 9.81175 18.257C9.14705 17.4808 8.785 16.5094 8.78711 15.5078V15.4531C9.39004 15.7773 10.0996 15.9766 10.842 16.0039C10.2179 15.6078 9.7061 15.0711 9.35194 14.4415C8.99778 13.8119 8.81223 13.1088 8.81172 12.3945C8.81172 11.5859 9.0332 10.8477 9.43106 10.207C10.575 11.5482 12.0025 12.6451 13.6207 13.4264C15.2389 14.2078 17.0116 14.6561 18.8236 14.7422C18.1797 11.793 20.493 9.40625 23.2738 9.40625C24.5863 9.40625 25.7676 9.92969 26.6002 10.7734C27.6297 10.5898 28.6141 10.2227 29.4918 9.73047C29.1514 10.7344 28.4377 11.582 27.4902 12.1172C28.409 12.0234 29.2949 11.7813 30.1152 11.4414C29.4959 12.3086 28.7207 13.0781 27.8307 13.6914V13.6914Z" fill="#704232"/>
  </svg>
